{"title":"If I Stay 2014 720p HDCAM ENGLISH x264 Pimp4003","uid":11003395,"size":2443878119,"categoryP":"video","categoryS":"movies","magnet":"?xt=urn:btih:32dd4d3d44554f359950923694f6db970ddc45a6&amp;dn=If+I+Stay+2014+720p+HDCAM+ENGLISH+x264+Pimp4003&amp;tr=udp%3A%2F%2Ftracker.openbittorrent.com%3A80&amp;tr=udp%3A%2F%2Fopen.demonii.com%3A1337&amp;tr=udp%3A%2F%2Ftracker.coppersurfer.tk%3A6969&amp;tr=udp%3A%2F%2Fexodus.desync.com%3A6969","seeders":108,"leechers":1,"uploader":"shawnmurthy","files":-1,"time":1410183658,"description":"FIRST HDCAM ENGLISH AUDIO......SOURCE BY SPECTRE ....THIS ONE IS BETTER AND THE DARK SCENES ARE BETTER AND NO FLICKERING OR ANYTHING....AUDJESTED THE CONTRAST AND DID SOME CUTS ON THE VIDEO TO IMPROVE IT....AUDIO...STOPPED THE ECHOING AND MADE IT IN SYNC....UNTIL THEN ENJOY\n &lt;a href=&quot;\nhttp://i.imgur.com/fW5GLTr.jpg&quot; rel=&quot;nofollow&quot; target=&quot;_NEW&quot;&gt;\nhttp://i.imgur.com/fW5GLTr.jpg&lt;/a&gt;\n &lt;a href=&quot;\nhttp://i.imgur.com/oqDIreo.jpg&quot; rel=&quot;nofollow&quot; target=&quot;_NEW&quot;&gt;\nhttp://i.imgur.com/oqDIreo.jpg&lt;/a&gt;\n\nCLICK BELOW LINK FOR SCREENSHOTS AND SAMPLE\n\nIf I Stay 2014 720p HDCAM ENGLISH x264 Pimp4003\n\nENJOY\n\nPIMP4003\n\nVideo\nID                                       : 2\nFormat                                   : AVC\nFormat/Info                              : Advanced Video Codec\nFormat profile                           : &lt;a class=&quot;__cf_email__&quot; href=&quot;/cdn-cgi/l/email-protection&quot; data-cfemail=&quot;bbf9dac8ded7d2d5defbf788958b&quot;&gt;[email&amp;#160;protected]&lt;/a&gt;&lt;script cf-hash='f9e31' type=&quot;text/javascript&quot;&gt;\n/* &lt;![CDATA[ */!function(){try{var t=&quot;currentScript&quot;in document?document.currentScript:function(){for(var t=document.getElementsByTagName(&quot;script&quot;),e=t.length;e--;)if(t[e].getAttribute(&quot;cf-hash&quot;))return t[e]}();if(t&amp;&amp;t.previousSibling){var e,r,n,i,c=t.previousSibling,a=c.getAttribute(&quot;data-cfemail&quot;);if(a){for(e=&quot;&quot;,r=parseInt(a.substr(0,2),16),n=2;a.length-n;n+=2)i=parseInt(a.substr(n,2),16)^r,e+=String.fromCharCode(i);e=document.createTextNode(e),c.parentNode.replaceChild(e,c)}}}catch(u){}}();/* ]]&gt; */&lt;/script&gt;\nFormat settings, CABAC                   : No\nFormat settings, ReFrames                : 1 frame\nFormat settings, GOP                     : M=1, N=25\nMuxing mode                              : Container profile=&lt;a class=&quot;__cf_email__&quot; href=&quot;/cdn-cgi/l/email-protection&quot; data-cfemail=&quot;480a293b2d2421262d087c6679&quot;&gt;[email&amp;#160;protected]&lt;/a&gt;&lt;script cf-hash='f9e31' type=&quot;text/javascript&quot;&gt;\n/* &lt;![CDATA[ */!function(){try{var t=&quot;currentScript&quot;in document?document.currentScript:function(){for(var t=document.getElementsByTagName(&quot;script&quot;),e=t.length;e--;)if(t[e].getAttribute(&quot;cf-hash&quot;))return t[e]}();if(t&amp;&amp;t.previousSibling){var e,r,n,i,c=t.previousSibling,a=c.getAttribute(&quot;data-cfemail&quot;);if(a){for(e=&quot;&quot;,r=parseInt(a.substr(0,2),16),n=2;a.length-n;n+=2)i=parseInt(a.substr(n,2),16)^r,e+=String.fromCharCode(i);e=document.createTextNode(e),c.parentNode.replaceChild(e,c)}}}catch(u){}}();/* ]]&gt; */&lt;/script&gt;\nCodec ID                                 : avc1\nCodec ID/Info                            : Advanced Video Coding\nDuration                                 : 1h 40mn\nBit rate                                 : 3 105 Kbps\nWidth                                    : 1 280 pixels\nHeight                                   : 544 pixels\nDisplay aspect ratio                     : 2.35:1\nFrame rate mode                          : Constant\nFrame rate                               : 29.970 fps\nOriginal frame rate                      : 29.000 fps\nColor space                              : YUV\nChroma subsampling                       : 4:2:0\nBit depth                                : 8 bits\nScan type                                : Progressive\nBits/(Pixel*Frame)                       : 0.149\nStream size                              : 2.18 GiB (96%)\nWriting library                          : ointer\nLanguage                                 : English\n\nAudio\nID                                       : 1\nFormat                                   : AAC\nFormat/Info                              : Advanced Audio Codec\nFormat profile                           : LC\nCodec ID                                 : 40\nDuration                                 : 1h 40mn\nBit rate mode                            : Constant\nBit rate                                 : 128 Kbps\nChannel(s)                               : 2 channels\nChannel positions                        : Front: L R\nSampling rate                            : 48.0 KHz\nCompression mode                         : Lossy\nStream size                              : 92.1 MiB (4%)\nLanguage                                 : English\n","torrent":{"xt":"urn:btih:32dd4d3d44554f359950923694f6db970ddc45a6","amp;dn":"If+I+Stay+2014+720p+HDCAM+ENGLISH+x264+Pimp4003","amp;tr":["udp%3A%2F%2Ftracker.openbittorrent.com%3A80","udp%3A%2F%2Fopen.demonii.com%3A1337","udp%3A%2F%2Ftracker.coppersurfer.tk%3A6969","udp%3A%2F%2Fexodus.desync.com%3A6969"],"infoHash":"32dd4d3d44554f359950923694f6db970ddc45a6","infoHashBuffer":{"type":"Buffer","data":[50,221,77,61,68,85,79,53,153,80,146,54,148,246,219,151,13,220,69,166]},"announce":[],"urlList":[]}}